<svg xmlns="http://www.w3.org/2000/svg" xmlns:se="http://svg-edit.googlecode.com" xmlns:xlink="http://www.w3.org/1999/xlink" xmlns:dc="http://purl.org/dc/elements/1.1/" xmlns:cc="http://creativecommons.org/ns#" xmlns:rdf="http://www.w3.org/1999/02/22-rdf-syntax-ns#" xmlns:inkscape="http://www.inkscape.org/namespaces/inkscape" width="550" height="100">
   <title>my vector image</title>
   <!-- Created with Vector Paint - http://www.vectorpaint.yaks.com/ https://chrome.google.com/webstore/detail/hnbpdiengicdefcjecjbnjnoifekhgdo -->
   <rect id="backgroundrect" width="100%" height="100%" x="0" y="0" fill="#ffffff" fill-opacity="0.0" stroke="none"/>
   <g style="" class="currentLayer">
      <title>Layer 1</title>
      <polyline fill="none" stroke="#ffffff" stroke-width="2" stroke-dasharray="5,5" stroke-linejoin="round" stroke-dashoffset="" fill-rule="nonzero" marker-start="" marker-mid="" marker-end="" id="svg_1" points="23.786455118286536,26.79699115762883 24.538334793273624,26.79699115762883 26.79397381823488,26.79699115762883 29.801492518183228,26.79699115762883 32.80901121813157,26.79699115762883 36.568409593067,26.79699115762883 40.32780796800243,26.79699115762883 44.839086017924956,26.79699115762883 50.10224374283457,26.79699115762883 53.86164211776998,26.79699115762883 57.62104049270542,28.300750507603006 61.38043886764085,30.556389532564257 64.3879575675892,33.5639082325126 65.13983724257628,35.81954725747386 65.89171691756337,38.07518628243511 66.64359659255045,39.57894563240929 66.64359659255045,41.08270498238346 66.64359659255045,42.586464332357636 65.89171691756337,43.33834400734473 64.3879575675892,44.09022368233181 62.88419821761502,44.84210335731889 60.62855919265377,45.593983032305985 58.372920167692506,46.345862707293065 55.36540146774416,47.09774238228016 53.86164211776998,47.09774238228016 52.35788276779581,47.09774238228016 51.60600309280874,47.09774238228016 50.85412341782163,45.593983032305985 50.10224374283457,44.84210335731889 50.10224374283457,44.09022368233181 50.10224374283457,43.33834400734473 50.10224374283457,41.834584657370556 50.10224374283457,41.08270498238346 51.60600309280874,39.57894563240929 53.109762442782916,37.32330660744803 55.36540146774416,34.3157879074997 57.62104049270542,32.06014888253843 60.62855919265377,29.80450985757717 64.3879575675892,27.54887083261592 69.6511152924988,23.78947245768048 71.90675431746006,22.28571310770631 75.6661526923955,21.533833432719224 78.67367139234383,20.03007408274505 81.68119009229218,19.27819440775796 84.68870879224053,19.27819440775796 87.69622749218888,19.27819440775796 89.95186651715014,19.27819440775796 92.20750554211139,19.27819440775796 93.71126489208557,20.781953757732136 95.21502424205974,22.28571310770631 96.71878359203392,24.54135213266757 98.2225429420081,26.79699115762883 98.97442261699517,29.052630182590082 98.97442261699517,31.308269207551344 99.72630229198226,33.5639082325126 99.72630229198226,37.32330660744803 100.47818196696936,40.33082530739638 100.47818196696936,43.33834400734473 100.47818196696936,47.09774238228016 100.47818196696936,50.10526108222851 100.47818196696936,53.11277978217685 100.47818196696936,56.1202984821252 100.47818196696936,59.12781718207355 101.23006164195645,62.887215557008965 101.98194131694352,65.14285458197023 102.73382099193059,67.3984936069315 102.73382099193059,68.90225295690566 103.48570066691771,70.40601230687983 104.2375803419048,71.15789198186692 105.74133969187893,71.909771656854 107.24509904185311,72.6616513318411 109.5007380668144,72.6616513318411 111.75637709177563,72.6616513318411 113.26013644174981,72.6616513318411 115.51577546671106,72.6616513318411 118.52329416665941,71.15789198186692 119.2751738416465,69.65413263189275 122.28269254159486,66.6466139319444 123.78645189156902,64.39097490698315 125.2902112415432,61.38345620703479 126.79397059151736,57.624057832099375 128.29772994149155,54.616539132151026 130.5533689664528,50.85714075721559 132.80900799141406,47.09774238228016 135.06464701637532,44.09022368233181 137.32028604133657,41.08270498238346 138.82404539131076,38.82706595742221 141.8315640912591,36.57142693246095 144.08720311622037,34.3157879074997 146.34284214118162,32.81202855752552 150.10224051611704,31.308269207551344 152.35787954107832,31.308269207551344 154.61351856603957,31.308269207551344 157.62103726598792,31.308269207551344 159.12479661596208,31.308269207551344 162.13231531591043,33.5639082325126 163.6360746658846,35.06766758248678 165.89171369084588,38.82706595742221 167.39547304082004,41.08270498238346 168.14735271580713,44.84210335731889 169.6511120657813,48.601501732254334 170.40299174076839,52.360900107189764 170.40299174076839,57.624057832099375 170.40299174076839,60.631576532047724 170.40299174076839,62.13533588202188 169.6511120657813,63.63909523199605 168.8992323907942,65.14285458197023 167.39547304082004,65.89473425695732 165.13983401585878,66.6466139319444 162.88419499089753,67.3984936069315 160.62855596593627,67.3984936069315 158.372916940975,67.3984936069315 156.11727791601373,67.3984936069315 155.36539824102664,66.6466139319444 153.10975921606538,64.39097490698315 153.10975921606538,62.887215557008965 153.10975921606538,61.38345620703479 153.10975921606538,60.631576532047724 153.10975921606538,59.12781718207355 153.10975921606538,56.872178157112266 153.86163889105248,54.616539132151026 156.11727791601373,52.360900107189764 159.12479661596208,49.353381407241415 163.6360746658846,46.345862707293065 168.14735271580713,43.33834400734473 174.9142697906909,39.57894563240929 178.67366816562634,38.07518628243511 183.18494621554885,36.57142693246095 188.44810394045845,35.81954725747386 192.2075023153939,35.81954725747386 197.4706600403035,35.81954725747386 201.23005841523891,35.81954725747386 204.9894567901744,35.81954725747386 209.50073484009684,37.32330660744803 212.50825354004522,39.57894563240929 215.51577223999354,41.834584657370556 217.77141126495482,44.09022368233181 220.77892996490314,47.09774238228016 222.28268931487733,49.353381407241415 223.78644866485152,52.360900107189764 224.5383283398386,56.1202984821252 225.29020801482568,59.12781718207355 225.29020801482568,61.38345620703479 225.29020801482568,62.887215557008965 225.29020801482568,63.63909523199605 224.5383283398386,64.39097490698315 223.03456898986443,65.14285458197023 221.53080963989024,65.89473425695732 219.275170614929,65.89473425695732 217.01953158996773,65.89473425695732 215.51577223999354,65.89473425695732 213.2601332150323,65.14285458197023 212.50825354004522,64.39097490698315 211.00449419007109,62.887215557008965 210.25261451508393,61.38345620703479 209.50073484009684,59.879696857060615 209.50073484009684,57.624057832099375 209.50073484009684,56.1202984821252 209.50073484009684,53.86465945716394 209.50073484009684,52.360900107189764 209.50073484009684,49.353381407241415 209.50073484009684,47.09774238228016 211.75637386505812,44.09022368233181 214.0120128900194,41.834584657370556 216.26765191498063,38.82706595742221 220.77892996490314,35.06766758248678 223.78644866485152,33.5639082325126 226.79396736479984,32.06014888253843 229.04960638976112,31.308269207551344 232.05712508970944,30.556389532564257 234.3127641146707,29.80450985757717 237.32028281461908,29.80450985757717 240.3278015145674,29.80450985757717 242.58344053952868,29.80450985757717 245.590959239477,31.308269207551344 249.35035761441247,33.5639082325126 252.3578763143608,36.57142693246095 254.61351533932208,38.07518628243511 255.36539501430917,40.33082530739638 256.1172746892962,41.834584657370556 256.1172746892962,42.586464332357636 256.1172746892962,44.84210335731889 256.1172746892962,50.10526108222851 257.6210340392704,55.36841880713811 257.6210340392704,59.12781718207355 258.3729137142575,63.63909523199605 259.1247933892446,67.3984936069315 259.1247933892446,71.15789198186692 259.1247933892446,74.16541068181527 259.1247933892446,77.17292938176361 259.1247933892446,79.42856840672488 259.1247933892446,81.68420743168613 257.6210340392704,83.18796678166031 256.1172746892962,86.19548548160864 254.61351533932208,87.69924483158282 251.6059966393737,90.70676353153117 249.35035761441247,91.45864320651826 246.3428389144641,92.21052288150534 244.08719988950284,92.96240255649242 241.8315608645416,93.71428223147952 240.3278015145674,93.71428223147952 238.07216248960614,93.71428223147952 236.56840313963198,92.96240255649242 235.0646437896578,91.45864320651826 234.3127641146707,90.70676353153117 233.56088443968363,89.20300418155699 233.56088443968363,87.69924483158282 233.56088443968363,85.44360580662156 233.56088443968363,85.44360580662156 233.56088443968363,82.43608710667321 236.56840313963198,78.67668873173778 239.5759218395803,75.66917003178943 243.33532021451578,72.6616513318411 246.3428389144641,70.40601230687983 250.10223728939954,68.15037328191858 253.86163566433498,65.89473425695732 258.3729137142575,64.39097490698315 262.1323120891929,62.887215557008965 265.8917104641284,62.13533588202188 269.6511088390638,61.38345620703479 274.1623868889863,61.38345620703479 280.177424288883,60.631576532047724 286.9443413637668,60.631576532047724 290.7037397387022,61.38345620703479 293.71125843865053,62.13533588202188 295.9668974636118,63.63909523199605 298.2225364885731,65.89473425695732 299.72629583854723,67.3984936069315 301.2300551885214,68.90225295690566 301.9819348635085,70.40601230687983 301.9819348635085,71.909771656854 301.9819348635085,73.41353100682818 301.9819348635085,74.16541068181527 301.9819348635085,75.66917003178943 299.72629583854723,77.9248090567507 298.2225364885731,79.42856840672488 295.9668974636118,80.18044808171196 293.71125843865053,80.93232775669904 291.4556194136893,81.68420743168613 287.6962210387539,82.43608710667321 283.9368226638184,82.43608710667321 282.43306331384423,81.68420743168613 279.4255446138959,80.18044808171196 277.1699055889346,77.9248090567507 274.9142665639734,76.42104970677653 272.6586275390121,73.41353100682818 271.154868189038,71.15789198186692 270.4029885140509,68.90225295690566 268.8992291640767,66.6466139319444 268.1473494890896,64.39097490698315 267.3954698141025,61.38345620703479 266.6435901391154,59.12781718207355 265.8917104641284,56.1202984821252 265.8917104641284,53.11277978217685 265.1398307891413,50.85714075721559 265.1398307891413,48.601501732254334 264.3879511141542,47.09774238228016 263.6360714391671,44.09022368233181 263.6360714391671,41.834584657370556 263.6360714391671,40.33082530739638 263.6360714391671,38.82706595742221 263.6360714391671,35.81954725747386 263.6360714391671,33.5639082325126 263.6360714391671,31.308269207551344 263.6360714391671,29.80450985757717 265.1398307891413,28.300750507603006 266.6435901391154,26.79699115762883 268.8992291640767,25.293231807654657 271.154868189038,24.54135213266757 274.1623868889863,23.037592782693398 276.4180259139476,23.037592782693398 279.4255446138959,22.28571310770631 282.43306331384423,22.28571310770631 286.9443413637668,22.28571310770631 289.199980388728,22.28571310770631 292.2074990886764,22.28571310770631 294.4631381136376,22.28571310770631 296.7187771385989,23.037592782693398 298.2225364885731,24.54135213266757 300.4781755135343,25.293231807654657 302.7338145384956,26.79699115762883 304.23757388846974,28.300750507603006 305.74133323844393,29.80450985757717 307.2450925884181,32.06014888253843 309.50073161337934,34.3157879074997 310.25261128836644,36.57142693246095 310.25261128836644,37.32330660744803 311.00449096335353,38.82706595742221 311.00449096335353,39.57894563240929 311.00449096335353,40.33082530739638 311.00449096335353,41.08270498238346 311.00449096335353,41.08270498238346 310.25261128836644,41.08270498238346 310.25261128836644,41.08270498238346 309.50073161337934,41.08270498238346 307.2450925884181,41.08270498238346 304.23757388846974,41.08270498238346 301.9819348635085,41.08270498238346 299.72629583854723,41.08270498238346 298.2225364885731,41.08270498238346 296.7187771385989,40.33082530739638 295.9668974636118,39.57894563240929 294.4631381136376,38.82706595742221 293.71125843865053,37.32330660744803 292.9593787636635,36.57142693246095 292.2074990886764,35.06766758248678 291.4556194136893,33.5639082325126 291.4556194136893,32.06014888253843 290.7037397387022,30.556389532564257 290.7037397387022,29.80450985757717 290.7037397387022,29.052630182590082 290.7037397387022,28.300750507603006 290.7037397387022,26.79699115762883 290.7037397387022,26.045111482641744 291.4556194136893,26.045111482641744 292.2074990886764,25.293231807654657 293.71125843865053,24.54135213266757 295.2150177886247,23.78947245768048 297.470656813586,23.037592782693398 299.72629583854723,23.037592782693398 302.7338145384956,22.28571310770631 304.98945356345683,22.28571310770631 307.2450925884181,22.28571310770631 311.00449096335353,22.28571310770631 314.76388933828895,22.28571310770631 316.26764868826314,22.28571310770631 319.2751673882115,22.28571310770631 321.53080641317274,23.037592782693398 323.786445438134,23.78947245768048 326.79396413808234,26.045111482641744 328.29772348805653,27.54887083261592 329.8014828380307,29.80450985757717 332.05712186299195,32.06014888253843 333.56088121296614,35.06766758248678 336.56839991291446,38.07518628243511 338.07215926288865,40.33082530739638 339.57591861286284,42.586464332357636 341.079677962837,44.84210335731889 342.58343731281116,47.09774238228016 344.08719666278535,49.353381407241415 346.34283568774663,51.609020432202676 347.09471536273367,53.86465945716394 347.84659503772076,56.1202984821252 349.35035438769495,59.12781718207355 350.10223406268204,62.13533588202188 350.85411373766914,65.14285458197023 351.60599341265623,68.15037328191858 353.10975276263036,72.6616513318411 353.86163243761746,75.66917003178943 353.86163243761746,77.17292938176361 354.61351211260455,79.42856840672488 354.61351211260455,80.18044808171196 355.36539178759165,80.93232775669904 355.36539178759165,80.93232775669904 356.11727146257874,80.93232775669904 356.86915113756584,80.93232775669904 358.37291048753997,80.93232775669904 360.62854951250125,80.93232775669904 365.89170723741086,80.93232775669904 369.65110561234627,79.42856840672488 371.90674463730755,77.9248090567507 374.9142633372559,75.66917003178943 377.16990236221716,74.16541068181527 377.92178203720425,72.6616513318411 379.4255413871784,71.15789198186692 380.1774210621655,69.65413263189275 381.68118041213967,68.90225295690566 381.68118041213967,67.3984936069315 382.43306008712676,67.3984936069315 382.43306008712676,66.6466139319444 382.43306008712676,65.89473425695732 382.43306008712676,65.14285458197023 382.43306008712676,63.63909523199605 382.43306008712676,62.13533588202188 382.43306008712676,58.37593750708644 382.43306008712676,55.36841880713811 381.68118041213967,53.11277978217685 381.68118041213967,50.85714075721559 380.9293007371526,50.10526108222851 380.1774210621655,49.353381407241415 380.1774210621655,48.601501732254334 379.4255413871784,47.84962205726724 378.6736617121913,47.84962205726724 377.16990236221716,47.84962205726724 375.66614301224297,47.84962205726724 372.65862431229465,47.84962205726724 370.40298528733337,47.84962205726724 368.8992259373592,47.84962205726724 366.64358691239795,47.84962205726724 365.13982756242376,47.84962205726724 364.38794788743667,48.601501732254334 363.6360682124496,48.601501732254334 362.8841885374625,49.353381407241415 362.13230886247544,50.10526108222851 362.13230886247544,50.85714075721559 362.13230886247544,51.609020432202676 362.13230886247544,53.11277978217685 362.13230886247544,54.616539132151026 362.13230886247544,55.36841880713811 362.13230886247544,56.872178157112266 362.13230886247544,58.37593750708644 363.6360682124496,60.631576532047724 365.89170723741086,62.13533588202188 368.1473462623721,63.63909523199605 369.65110561234627,65.14285458197023 370.40298528733337,65.14285458197023 371.90674463730755,65.14285458197023 373.4105039872817,65.14285458197023 375.66614301224297,65.89473425695732 380.1774210621655,66.6466139319444 383.93681943710095,68.15037328191858 386.19245846206223,68.15037328191858 389.9518568369976,68.90225295690566 393.71125521193306,70.40601230687983 395.96689423689435,70.40601230687983 400.4781722868168,70.40601230687983 404.2375706617523,70.40601230687983 407.24508936170054,69.65413263189275 411.7563674116231,68.15037328191858 414.0120064365844,66.6466139319444 417.01952513653265,65.14285458197023 420.77892351146824,62.887215557008965 423.0345625364294,60.631576532047724 424.5383218864036,58.37593750708644 427.54584058635186,54.616539132151026 427.54584058635186,52.360900107189764 429.80147961131314,48.601501732254334 430.55335928630024,47.09774238228016 430.55335928630024,45.593983032305985 430.55335928630024,44.09022368233181 430.55335928630024,42.586464332357636 430.55335928630024,41.834584657370556 430.55335928630024,41.08270498238346 430.55335928630024,40.33082530739638 429.04959993632605,39.57894563240929 427.54584058635186,38.82706595742221 426.0420812363778,38.07518628243511 423.7864422114165,38.07518628243511 422.2826828614423,38.07518628243511 421.5308031864552,38.07518628243511 420.77892351146824,38.07518628243511 420.77892351146824,38.07518628243511 420.02704383648114,38.07518628243511 420.02704383648114,38.82706595742221 419.27516416149393,38.82706595742221 419.27516416149393,39.57894563240929 419.27516416149393,40.33082530739638 418.52328448650684,40.33082530739638 418.52328448650684,41.08270498238346 418.52328448650684,41.834584657370556 418.52328448650684,43.33834400734473 418.52328448650684,44.09022368233181 418.52328448650684,46.345862707293065 418.52328448650684,47.84962205726724 418.52328448650684,49.353381407241415 418.52328448650684,50.85714075721559 418.52328448650684,52.360900107189764 418.52328448650684,53.11277978217685 419.27516416149393,54.616539132151026 419.27516416149393,55.36841880713811 420.02704383648114,56.1202984821252 420.77892351146824,56.872178157112266 421.5308031864552,57.624057832099375 423.0345625364294,58.37593750708644 423.7864422114165,58.37593750708644 425.2902015613907,59.12781718207355 426.79396091136476,59.12781718207355 428.29772026133895,59.12781718207355 429.80147961131314,59.12781718207355 431.30523896128733,59.879696857060615 433.5608779862486,59.879696857060615 435.0646373362228,59.879696857060615 437.3202763611841,59.879696857060615 438.82403571115816,59.879696857060615 441.07967473611944,59.879696857060615 442.58343408609363,59.879696857060615 445.590952786042,59.12781718207355 447.0947121360162,58.37593750708644 448.59847148599033,57.624057832099375 450.10223083596446,56.872178157112266 451.60599018593865,56.872178157112266 453.10974953591284,56.1202984821252 453.86162921089993,55.36841880713811 455.3653885608741,53.86465945716394 456.1172682358612,53.11277978217685 456.8691479108483,51.609020432202676 458.3729072608225,50.85714075721559 459.87666661079663,48.601501732254334 459.87666661079663,48.601501732254334 460.6285462857837,47.09774238228016 462.88418531074495,44.84210335731889 463.63606498573205,42.586464332357636 465.89170401069333,40.33082530739638 467.3954633606675,38.82706595742221 469.65110238562875,35.81954725747386 471.90674141059003,33.5639082325126 474.91426011053835,30.556389532564257 477.16989913549963,28.300750507603006 478.6736584854738,26.045111482641744 480.92929751043505,23.78947245768048 483.18493653539633,22.28571310770631 486.19245523534465,21.533833432719224 488.44809426030594,20.781953757732136 491.4556129602543,20.781953757732136 493.71125198521554,20.781953757732136 495.9668910101768,20.781953757732136 498.2225300351381,21.533833432719224 500.47816906009933,22.28571310770631 501.9819284100735,23.78947245768048 503.4856877600477,25.293231807654657 504.98944711002184,26.79699115762883 505.74132678500894,28.300750507603006 507.2450861349831,29.80450985757717 507.9969658099702,32.06014888253843 508.7488454849573,34.3157879074997 509.5007251599444,36.57142693246095 510.2526048349315,38.82706595742221 510.2526048349315,40.33082530739638 510.2526048349315,43.33834400734473 510.2526048349315,45.593983032305985 510.2526048349315,47.84962205726724 510.2526048349315,50.10526108222851 510.2526048349315,51.609020432202676 508.7488454849573,52.360900107189764 508.7488454849573,53.11277978217685 507.9969658099702,53.86465945716394 506.49320645999603,54.616539132151026 505.74132678500894,55.36841880713811 503.4856877600477,55.36841880713811 501.2300487350864,56.1202984821252 498.97440971012514,56.1202984821252 496.7187706851639,56.1202984821252 494.46313166020263,56.1202984821252 492.2074926352414,56.1202984821252 490.7037332852672,55.36841880713811 489.9518536102801,54.616539132151026 488.44809426030594,53.11277978217685 488.44809426030594,51.609020432202676 488.44809426030594,50.85714075721559 488.44809426030594,49.353381407241415 488.44809426030594,47.84962205726724 488.44809426030594,46.345862707293065 488.44809426030594,44.09022368233181 489.19997393529303,41.834584657370556 490.7037332852672,39.57894563240929 492.2074926352414,38.07518628243511 493.71125198521554,35.81954725747386 495.9668910101768,34.3157879074997 498.97440971012514,32.06014888253843 501.9819284100735,29.80450985757717 504.98944711002184,27.54887083261592 511.00448450991854,24.54135213266757 512.5082438598928,23.78947245768048 519.2751609347765,20.781953757732136 523.034559309712,20.03007408274505 526.7939576846474,18.526314732770874 529.8014763845957,17.774435057783787 532.057115409557,16.27067570780962 533.5608747595312,16.27067570780962 535.0646341095054,16.27067570780962 535.8165137844925,16.27067570780962 536.5683934594795,16.27067570780962 537.3202731344666,16.27067570780962 538.0721528094537,16.27067570780962 538.8240324844407,15.518796032822534 538.8240324844407,15.518796032822534 " style="color: rgb(0, 0, 0);"/>
   </g>
</svg>